<?xml version="1.0" encoding="UTF-8" standalone="no"?>
<!-- Created with Inkscape (http://www.inkscape.org/) -->

<svg
   xmlns:dc="http://purl.org/dc/elements/1.1/"
   xmlns:cc="http://creativecommons.org/ns#"
   xmlns:rdf="http://www.w3.org/1999/02/22-rdf-syntax-ns#"
   xmlns:svg="http://www.w3.org/2000/svg"
   xmlns="http://www.w3.org/2000/svg"
   xmlns:sodipodi="http://sodipodi.sourceforge.net/DTD/sodipodi-0.dtd"
   xmlns:inkscape="http://www.inkscape.org/namespaces/inkscape"
   id="svg3039"
   version="1.1"
   inkscape:version="0.48.3 r9882"
   width="136"
   height="211"
   sodipodi:docname="red.svg">
  <metadata
     id="metadata3045">
    <rdf:RDF>
      <cc:Work
         rdf:about="">
        <dc:format>image/svg+xml</dc:format>
        <dc:type
           rdf:resource="http://purl.org/dc/dcmitype/StillImage" />
        <dc:title></dc:title>
      </cc:Work>
    </rdf:RDF>
  </metadata>
  <defs
     id="defs3043" />
  <sodipodi:namedview
     pagecolor="#ffffff"
     bordercolor="#666666"
     borderopacity="1"
     objecttolerance="10"
     gridtolerance="10"
     guidetolerance="10"
     inkscape:pageopacity="0"
     inkscape:pageshadow="2"
     inkscape:window-width="1020"
     inkscape:window-height="732"
     id="namedview3041"
     showgrid="false"
     inkscape:zoom="2.0859375"
     inkscape:cx="122.90892"
     inkscape:cy="110.85969"
     inkscape:window-x="0"
     inkscape:window-y="16"
     inkscape:window-maximized="0"
     inkscape:current-layer="svg3039" />
  <path
     style="fill:none;stroke:#000000;stroke-width:4.94167662;stroke-linecap:butt;stroke-linejoin:miter;stroke-miterlimit:4;stroke-opacity:1;stroke-dasharray:none"
     d="m 5.0583084,160.99678 c 0,0 9.9236896,-92.63749 49.1458876,-157.2462049"
     id="path3177"
     inkscape:connector-curvature="0" />
  <path
     style="fill:none;stroke:#000000;stroke-width:4.94167662;stroke-linecap:butt;stroke-linejoin:miter;stroke-miterlimit:4;stroke-opacity:1;stroke-dasharray:none"
     d="m 51.206419,4.2256394 c 0,0 62.850031,6.1758336 81.752301,47.5064086"
     id="path3947"
     inkscape:connector-curvature="0" />
  <path
     style="fill:none;stroke:#000000;stroke-width:4.94167662;stroke-linecap:butt;stroke-linejoin:miter;stroke-miterlimit:4;stroke-opacity:1;stroke-dasharray:none"
     d="m 131.7847,49.082081 c 0,0 -19.84738,88.361919 -111.523363,16.152179"
     id="path3949"
     inkscape:connector-curvature="0" />
  <path
     style="fill:none;stroke:#000000;stroke-width:4.94167662;stroke-linecap:butt;stroke-linejoin:miter;stroke-miterlimit:4;stroke-opacity:1;stroke-dasharray:none"
     d="m 132.58214,50.336555 c 0,0 -9.92369,92.637485 -49.145879,157.246205"
     id="path3177-8"
     inkscape:connector-curvature="0" />
  <path
     style="fill:none;stroke:#000000;stroke-width:4.94167662;stroke-linecap:butt;stroke-linejoin:miter;stroke-miterlimit:4;stroke-opacity:1;stroke-dasharray:none"
     d="m 86.434034,207.10769 c 0,0 -62.850035,-6.17583 -81.7522996,-47.5064"
     id="path3947-9"
     inkscape:connector-curvature="0" />
  <path
     style="fill:none;stroke:#000000;stroke-width:4.94167662;stroke-linecap:butt;stroke-linejoin:miter;stroke-miterlimit:4;stroke-opacity:1;stroke-dasharray:none"
     d="m 5.8557509,162.25125 c 0,0 19.8473761,-88.361909 111.5233591,-16.15217"
     id="path3949-1"
     inkscape:connector-curvature="0" />
  <path
     style="fill:#ff0000;fill-opacity:1;stroke:#000000;stroke-width:1.18600237;stroke-miterlimit:4;stroke-opacity:1;stroke-dasharray:none"
     d="M 79.674998,90.761482 C 65.546698,89.4417 50.156656,82.958552 32.773754,71.004057 30.499575,69.44007 28.638883,68.120348 28.638883,68.071345 c 0,-0.049 0.822776,-2.537546 1.82839,-5.530088 5.582363,-16.612185 14.874686,-37.719293 22.264163,-50.572073 1.351991,-2.3515678 2.496408,-4.3160102 2.543148,-4.3654281 0.162917,-0.1722505 9.076895,1.6772115 13.76789,2.8565461 18.062759,4.541047 33.957656,12.212457 45.663096,22.038536 4.15825,3.490631 10.10619,10.343233 12.60759,14.525172 l 1.56389,2.614576 -1.24185,3.730843 c -5.35708,16.094044 -16.54789,29.461981 -28.788698,34.389452 -5.564075,2.239784 -13.698798,3.513824 -19.171504,3.002601 z"
     id="path3975"
     inkscape:connector-curvature="0" />
</svg>
